<svg xmlns="http://www.w3.org/2000/svg" viewBox="0 0 620 460" preserveAspectRatio="xMidYMid slice"><path d="M-10,-32.2 L0,-30.0 L10,-27.8 L20,-25.6 L30,-23.5 L40,-21.4 L50,-19.4 L60,-17.5 L70,-15.7 L80,-14.0 L90,-12.5 L100,-11.2 L110,-10.0 L120,-9.0 L130,-8.2 L140,-7.6 L150,-7.1 L160,-6.9 L170,-6.9 L180,-7.1 L190,-7.4 L200,-8.0 L210,-8.7 L220,-9.6 L230,-10.7 L240,-11.9 L250,-13.3 L260,-14.7 L270,-16.3 L280,-17.9 L290,-19.6 L300,-21.4 L310,-23.2 L320,-25.0 L330,-26.7 L340,-28.5 L350,-30.2 L360,-31.8 L370,-33.4 L380,-34.8 L390,-36.2 L400,-37.4 L410,-38.5 L420,-39.5 L430,-40.3 L440,-40.9 L450,-41.4 L460,-41.7 L470,-41.9 L480,-41.9 L490,-41.7 L500,-41.4 L510,-41.0 L520,-40.4 L530,-39.7 L540,-38.9 L550,-38.0 L560,-37.0 L570,-35.9 L580,-34.8 L590,-33.6 L600,-32.4 L610,-31.2 L620,-30.0 L630,-28.9" fill="none" stroke="#352F25" stroke-opacity="0.12" stroke-width="1.4"/><path d="M-10,23.2 L0,25.7 L10,27.9 L20,29.9 L30,31.5 L40,32.8 L50,33.7 L60,34.3 L70,34.5 L80,34.3 L90,33.7 L100,32.8 L110,31.4 L120,29.8 L130,27.8 L140,25.5 L150,23.0 L160,20.3 L170,17.4 L180,14.3 L190,11.1 L200,7.9 L210,4.7 L220,1.5 L230,-1.5 L240,-4.5 L250,-7.3 L260,-9.9 L270,-12.3 L280,-14.4 L290,-16.2 L300,-17.6 L310,-18.8 L320,-19.6 L330,-20.0 L340,-20.1 L350,-19.9 L360,-19.3 L370,-18.4 L380,-17.2 L390,-15.7 L400,-14.0 L410,-12.0 L420,-9.9 L430,-7.6 L440,-5.3 L450,-2.8 L460,-0.4 L470,2.0 L480,4.4 L490,6.6 L500,8.7 L510,10.6 L520,12.3 L530,13.8 L540,14.9 L550,15.8 L560,16.4 L570,16.7 L580,16.6 L590,16.2 L600,15.5 L610,14.5 L620,13.2 L630,11.6" fill="none" stroke="#352F25" stroke-opacity="0.12" stroke-width="1.4"/><path d="M-10,70.1 L0,70.8 L10,70.8 L20,70.2 L30,69.0 L40,67.2 L50,64.7 L60,61.8 L70,58.4 L80,54.5 L90,50.3 L100,45.8 L110,41.1 L120,36.3 L130,31.5 L140,26.8 L150,22.2 L160,17.9 L170,13.9 L180,10.3 L190,7.1 L200,4.5 L210,2.4 L220,1.0 L230,0.1 L240,-0.1 L250,0.4 L260,1.4 L270,3.0 L280,5.2 L290,7.8 L300,10.9 L310,14.3 L320,18.1 L330,22.0 L340,26.1 L350,30.2 L360,34.3 L370,38.2 L380,41.9 L390,45.4 L400,48.4 L410,51.0 L420,53.2 L430,54.8 L440,55.8 L450,56.3 L460,56.2 L470,55.5 L480,54.3 L490,52.5 L500,50.3 L510,47.5 L520,44.4 L530,41.0 L540,37.4 L550,33.6 L560,29.7 L570,25.9 L580,22.1 L590,18.5 L600,15.2 L610,12.2 L620,9.7 L630,7.6" fill="none" stroke="#352F25" stroke-opacity="0.12" stroke-width="1.4"/><path d="M-10,98.0 L0,95.7 L10,93.1 L20,90.2 L30,87.0 L40,83.5 L50,79.8 L60,75.9 L70,71.9 L80,67.8 L90,63.7 L100,59.5 L110,55.3 L120,51.3 L130,47.3 L140,43.5 L150,39.9 L160,36.5 L170,33.4 L180,30.7 L190,28.2 L200,26.2 L210,24.5 L220,23.2 L230,22.3 L240,21.9 L250,21.9 L260,22.4 L270,23.3 L280,24.6 L290,26.3 L300,28.4 L310,30.9 L320,33.8 L330,36.9 L340,40.4 L350,44.1 L360,48.0 L370,52.1 L380,56.3 L390,60.7 L400,65.0 L410,69.4 L420,73.7 L430,78.0 L440,82.1 L450,86.0 L460,89.7 L470,93.2 L480,96.4 L490,99.2 L500,101.8 L510,103.9 L520,105.7 L530,107.1 L540,108.0 L550,108.6 L560,108.7 L570,108.4 L580,107.6 L590,106.5 L600,105.0 L610,103.1 L620,100.9 L630,98.4" fill="none" stroke="#352F25" stroke-opacity="0.12" stroke-width="1.4"/><path d="M-10,110.8 L0,105.7 L10,100.5 L20,95.2 L30,89.9 L40,84.5 L50,79.4 L60,74.4 L70,69.7 L80,65.4 L90,61.6 L100,58.2 L110,55.4 L120,53.2 L130,51.7 L140,50.8 L150,50.6 L160,51.1 L170,52.3 L180,54.1 L190,56.6 L200,59.8 L210,63.5 L220,67.8 L230,72.5 L240,77.6 L250,83.1 L260,88.8 L270,94.7 L280,100.6 L290,106.6 L300,112.5 L310,118.2 L320,123.7 L330,128.8 L340,133.5 L350,137.8 L360,141.5 L370,144.7 L380,147.2 L390,149.1 L400,150.2 L410,150.7 L420,150.5 L430,149.6 L440,148.0 L450,145.8 L460,142.9 L470,139.5 L480,135.6 L490,131.3 L500,126.5 L510,121.5 L520,116.2 L530,110.8 L540,105.4 L550,99.9 L560,94.6 L570,89.5 L580,84.6 L590,80.1 L600,76.0 L610,72.3 L620,69.2 L630,66.6" fill="none" stroke="#352F25" stroke-opacity="0.12" stroke-width="1.4"/><path d="M-10,125.7 L0,123.9 L10,122.4 L20,120.9 L30,119.7 L40,118.8 L50,118.0 L60,117.6 L70,117.5 L80,117.7 L90,118.2 L100,119.1 L110,120.2 L120,121.7 L130,123.4 L140,125.4 L150,127.6 L160,130.0 L170,132.5 L180,135.1 L190,137.7 L200,140.4 L210,143.0 L220,145.5 L230,147.9 L240,150.1 L250,152.0 L260,153.7 L270,155.1 L280,156.2 L290,156.9 L300,157.3 L310,157.4 L320,157.1 L330,156.4 L340,155.4 L350,154.1 L360,152.5 L370,150.6 L380,148.6 L390,146.3 L400,143.9 L410,141.4 L420,138.9 L430,136.3 L440,133.9 L450,131.5 L460,129.2 L470,127.1 L480,125.3 L490,123.7 L500,122.3 L510,121.3 L520,120.6 L530,120.1 L540,120.0 L550,120.2 L560,120.7 L570,121.5 L580,122.5 L590,123.7 L600,125.2 L610,126.7 L620,128.4 L630,130.2" fill="none" stroke="#352F25" stroke-opacity="0.12" stroke-width="1.4"/><path d="M-10,152.7 L0,151.8 L10,151.0 L20,150.5 L30,150.2 L40,150.1 L50,150.2 L60,150.6 L70,151.2 L80,152.0 L90,153.0 L100,154.2 L110,155.6 L120,157.2 L130,158.9 L140,160.8 L150,162.8 L160,164.9 L170,167.0 L180,169.2 L190,171.4 L200,173.6 L210,175.8 L220,177.9 L230,180.0 L240,181.9 L250,183.7 L260,185.3 L270,186.8 L280,188.0 L290,189.1 L300,189.9 L310,190.5 L320,190.8 L330,190.9 L340,190.7 L350,190.3 L360,189.6 L370,188.6 L380,187.4 L390,185.9 L400,184.2 L410,182.3 L420,180.2 L430,178.0 L440,175.5 L450,172.9 L460,170.3 L470,167.5 L480,164.7 L490,161.8 L500,159.0 L510,156.1 L520,153.4 L530,150.7 L540,148.1 L550,145.6 L560,143.4 L570,141.3 L580,139.4 L590,137.7 L600,136.2 L610,135.1 L620,134.1 L630,133.5" fill="none" stroke="#352F25" stroke-opacity="0.12" stroke-width="1.4"/><path d="M-10,175.8 L0,176.0 L10,176.7 L20,177.8 L30,179.3 L40,181.1 L50,183.3 L60,185.8 L70,188.5 L80,191.4 L90,194.5 L100,197.7 L110,201.0 L120,204.2 L130,207.4 L140,210.5 L150,213.4 L160,216.1 L170,218.5 L180,220.6 L190,222.3 L200,223.7 L210,224.6 L220,225.2 L230,225.2 L240,224.9 L250,224.0 L260,222.8 L270,221.1 L280,219.0 L290,216.5 L300,213.6 L310,210.4 L320,207.0 L330,203.3 L340,199.5 L350,195.6 L360,191.6 L370,187.6 L380,183.6 L390,179.8 L400,176.2 L410,172.7 L420,169.6 L430,166.8 L440,164.3 L450,162.3 L460,160.7 L470,159.5 L480,158.8 L490,158.6 L500,158.9 L510,159.7 L520,161.0 L530,162.7 L540,164.9 L550,167.4 L560,170.4 L570,173.7 L580,177.2 L590,181.0 L600,184.9 L610,189.0 L620,193.1 L630,197.2" fill="none" stroke="#352F25" stroke-opacity="0.12" stroke-width="1.4"/><path d="M-10,202.5 L0,205.8 L10,209.6 L20,213.8 L30,218.3 L40,223.0 L50,227.8 L60,232.6 L70,237.3 L80,241.7 L90,245.8 L100,249.6 L110,252.8 L120,255.4 L130,257.4 L140,258.8 L150,259.4 L160,259.3 L170,258.5 L180,256.9 L190,254.7 L200,251.8 L210,248.3 L220,244.3 L230,239.9 L240,235.1 L250,230.0 L260,224.8 L270,219.5 L280,214.3 L290,209.3 L300,204.5 L310,200.2 L320,196.2 L330,192.9 L340,190.1 L350,188.0 L360,186.7 L370,186.1 L380,186.3 L390,187.3 L400,189.0 L410,191.5 L420,194.6 L430,198.4 L440,202.8 L450,207.6 L460,212.9 L470,218.4 L480,224.1 L490,229.9 L500,235.7 L510,241.3 L520,246.7 L530,251.7 L540,256.3 L550,260.4 L560,263.9 L570,266.7 L580,268.8 L590,270.1 L600,270.7 L610,270.5 L620,269.6 L630,267.9" fill="none" stroke="#352F25" stroke-opacity="0.12" stroke-width="1.4"/><path d="M-10,250.1 L0,254.6 L10,259.1 L20,263.5 L30,267.9 L40,272.2 L50,276.2 L60,280.1 L70,283.7 L80,287.0 L90,289.9 L100,292.5 L110,294.6 L120,296.4 L130,297.7 L140,298.6 L150,299.0 L160,298.9 L170,298.4 L180,297.4 L190,296.0 L200,294.2 L210,292.0 L220,289.4 L230,286.5 L240,283.2 L250,279.8 L260,276.0 L270,272.2 L280,268.2 L290,264.1 L300,260.0 L310,255.9 L320,251.9 L330,247.9 L340,244.2 L350,240.7 L360,237.4 L370,234.4 L380,231.8 L390,229.5 L400,227.6 L410,226.1 L420,225.0 L430,224.5 L440,224.3 L450,224.7 L460,225.5 L470,226.7 L480,228.4 L490,230.6 L500,233.2 L510,236.1 L520,239.4 L530,243.0 L540,246.9 L550,251.0 L560,255.4 L570,259.8 L580,264.4 L590,269.0 L600,273.7 L610,278.2 L620,282.7 L630,287.0" fill="none" stroke="#352F25" stroke-opacity="0.12" stroke-width="1.4"/><path d="M-10,298.0 L0,299.9 L10,301.8 L20,303.4 L30,304.9 L40,306.2 L50,307.3 L60,308.1 L70,308.7 L80,309.0 L90,309.1 L100,309.0 L110,308.7 L120,308.1 L130,307.4 L140,306.4 L150,305.3 L160,304.1 L170,302.7 L180,301.3 L190,299.8 L200,298.3 L210,296.8 L220,295.3 L230,293.9 L240,292.5 L250,291.3 L260,290.2 L270,289.2 L280,288.4 L290,287.9 L300,287.5 L310,287.3 L320,287.3 L330,287.6 L340,288.1 L350,288.8 L360,289.7 L370,290.8 L380,292.0 L390,293.4 L400,295.0 L410,296.6 L420,298.4 L430,300.1 L440,302.0 L450,303.8 L460,305.5 L470,307.3 L480,308.9 L490,310.4 L500,311.7 L510,312.9 L520,313.9 L530,314.7 L540,315.2 L550,315.5 L560,315.6 L570,315.4 L580,314.9 L590,314.1 L600,313.2 L610,311.9 L620,310.5 L630,308.8" fill="none" stroke="#352F25" stroke-opacity="0.12" stroke-width="1.4"/><path d="M-10,353.5 L0,354.7 L10,355.4 L20,355.7 L30,355.4 L40,354.7 L50,353.5 L60,351.9 L70,349.9 L80,347.6 L90,345.0 L100,342.2 L110,339.2 L120,336.1 L130,333.0 L140,329.9 L150,326.9 L160,324.1 L170,321.5 L180,319.2 L190,317.2 L200,315.6 L210,314.3 L220,313.5 L230,313.1 L240,313.2 L250,313.7 L260,314.6 L270,316.0 L280,317.7 L290,319.7 L300,322.0 L310,324.5 L320,327.3 L330,330.1 L340,333.0 L350,335.8 L360,338.6 L370,341.2 L380,343.6 L390,345.8 L400,347.6 L410,349.1 L420,350.1 L430,350.7 L440,350.9 L450,350.6 L460,349.8 L470,348.6 L480,346.9 L490,344.8 L500,342.3 L510,339.5 L520,336.3 L530,333.0 L540,329.4 L550,325.8 L560,322.0 L570,318.3 L580,314.7 L590,311.3 L600,308.1 L610,305.1 L620,302.5 L630,300.3" fill="none" stroke="#352F25" stroke-opacity="0.12" stroke-width="1.4"/><path d="M-10,396.1 L0,394.5 L10,392.7 L20,390.5 L30,388.1 L40,385.4 L50,382.5 L60,379.4 L70,376.2 L80,372.8 L90,369.4 L100,365.9 L110,362.4 L120,358.9 L130,355.5 L140,352.2 L150,349.0 L160,345.9 L170,343.1 L180,340.5 L190,338.1 L200,335.9 L210,334.1 L220,332.5 L230,331.3 L240,330.4 L250,329.8 L260,329.6 L270,329.7 L280,330.1 L290,330.8 L300,331.9 L310,333.2 L320,334.8 L330,336.7 L340,338.7 L350,341.0 L360,343.5 L370,346.1 L380,348.8 L390,351.5 L400,354.3 L410,357.2 L420,360.0 L430,362.7 L440,365.4 L450,367.9 L460,370.3 L470,372.5 L480,374.5 L490,376.2 L500,377.7 L510,379.0 L520,380.0 L530,380.6 L540,381.0 L550,381.1 L560,380.9 L570,380.4 L580,379.6 L590,378.5 L600,377.1 L610,375.5 L620,373.7 L630,371.6" fill="none" stroke="#352F25" stroke-opacity="0.12" stroke-width="1.4"/><path d="M-10,411.2 L0,406.4 L10,401.5 L20,396.4 L30,391.3 L40,386.2 L50,381.2 L60,376.4 L70,371.8 L80,367.5 L90,363.6 L100,360.1 L110,357.1 L120,354.5 L130,352.5 L140,351.1 L150,350.2 L160,349.9 L170,350.2 L180,351.1 L190,352.6 L200,354.6 L210,357.0 L220,360.0 L230,363.3 L240,367.0 L250,371.0 L260,375.2 L270,379.6 L280,384.1 L290,388.6 L300,393.0 L310,397.4 L320,401.5 L330,405.4 L340,409.0 L350,412.3 L360,415.1 L370,417.4 L380,419.3 L390,420.7 L400,421.5 L410,421.8 L420,421.6 L430,420.8 L440,419.5 L450,417.7 L460,415.4 L470,412.8 L480,409.7 L490,406.3 L500,402.6 L510,398.8 L520,394.7 L530,390.7 L540,386.6 L550,382.5 L560,378.7 L570,375.0 L580,371.5 L590,368.4 L600,365.7 L610,363.4 L620,361.5 L630,360.2" fill="none" stroke="#352F25" stroke-opacity="0.12" stroke-width="1.4"/><path d="M-10,407.9 L0,401.5 L10,395.6 L20,390.1 L30,385.2 L40,380.9 L50,377.5 L60,374.8 L70,373.0 L80,372.2 L90,372.2 L100,373.2 L110,375.1 L120,377.9 L130,381.5 L140,385.8 L150,390.7 L160,396.3 L170,402.2 L180,408.5 L190,415.0 L200,421.5 L210,428.0 L220,434.3 L230,440.3 L240,445.8 L250,450.9 L260,455.2 L270,458.9 L280,461.8 L290,463.8 L300,465.0 L310,465.3 L320,464.7 L330,463.3 L340,461.0 L350,457.9 L360,454.2 L370,449.8 L380,444.9 L390,439.7 L400,434.1 L410,428.3 L420,422.6 L430,416.9 L440,411.4 L450,406.2 L460,401.5 L470,397.4 L480,393.9 L490,391.1 L500,389.1 L510,387.9 L520,387.6 L530,388.2 L540,389.6 L550,391.9 L560,395.0 L570,398.9 L580,403.4 L590,408.5 L600,414.1 L610,420.1 L620,426.3 L630,432.6" fill="none" stroke="#352F25" stroke-opacity="0.12" stroke-width="1.4"/><path d="M-10,436.5 L0,435.9 L10,435.4 L20,435.2 L30,435.1 L40,435.3 L50,435.6 L60,436.2 L70,436.9 L80,437.9 L90,439.0 L100,440.2 L110,441.7 L120,443.3 L130,445.0 L140,446.9 L150,448.8 L160,450.9 L170,453.0 L180,455.2 L190,457.3 L200,459.5 L210,461.7 L220,463.9 L230,466.0 L240,468.0 L250,470.0 L260,471.8 L270,473.5 L280,475.1 L290,476.5 L300,477.7 L310,478.8 L320,479.7 L330,480.4 L340,480.9 L350,481.2 L360,481.3 L370,481.2 L380,480.8 L390,480.3 L400,479.7 L410,478.8 L420,477.7 L430,476.6 L440,475.2 L450,473.8 L460,472.2 L470,470.5 L480,468.8 L490,467.0 L500,465.1 L510,463.3 L520,461.4 L530,459.6 L540,457.8 L550,456.1 L560,454.4 L570,452.8 L580,451.3 L590,450.0 L600,448.8 L610,447.7 L620,446.7 L630,445.9" fill="none" stroke="#352F25" stroke-opacity="0.12" stroke-width="1.4"/><path d="M492.6,150.0 L496.5,154.2 L497.1,158.7 L494.7,162.7 L490.3,165.7 L485.2,167.8 L480.3,169.5 L475.9,171.0 L471.8,172.4 L467.6,173.4 L463.2,173.6 L458.9,172.6 L455.0,170.9 L451.7,169.1 L448.7,168.1 L445.1,168.4 L440.1,169.8 L433.5,171.6 L425.9,172.4 L418.8,171.4 L413.9,168.2 L412.6,163.5 L414.8,158.3 L419.6,153.6 L425.0,150.0 L429.4,147.4 L431.8,145.2 L432.3,142.8 L431.8,139.7 L431.6,136.2 L432.5,132.7 L434.8,129.7 L438.0,127.3 L441.7,125.3 L445.7,123.3 L450.0,121.1 L455.0,118.9 L460.6,117.5 L466.2,117.8 L471.0,120.3 L473.9,124.8 L474.6,130.3 L473.7,135.6 L472.4,139.7 L472.5,142.2 L475.0,143.6 L480.1,144.8 L486.6,146.8 L492.6,150.0Z" fill="none" stroke="#352F25" stroke-opacity="0.13" stroke-width="1.4"/><path d="M518.6,150.0 L522.2,156.8 L522.2,163.9 L518.8,170.3 L512.9,175.7 L505.8,180.0 L498.7,183.6 L491.7,186.8 L484.8,189.7 L477.5,191.9 L469.9,192.9 L462.3,192.5 L455.0,190.9 L448.3,188.9 L442.0,187.4 L435.2,186.8 L427.1,187.1 L417.7,187.4 L407.5,186.6 L398.1,183.6 L391.4,178.2 L388.5,171.2 L389.7,163.5 L393.8,156.2 L399.0,150.0 L403.7,144.8 L406.7,140.0 L408.3,135.1 L409.3,129.7 L411.0,124.0 L414.1,118.6 L418.9,113.8 L425.0,110.0 L431.8,106.9 L439.0,104.0 L446.7,101.2 L455.0,98.9 L464.0,97.7 L472.9,98.5 L480.9,101.8 L486.9,107.5 L490.5,114.4 L492.0,121.5 L493.0,127.6 L495.0,132.2 L499.0,136.0 L505.2,139.7 L512.4,144.2 L518.6,150.0Z" fill="none" stroke="#352F25" stroke-opacity="0.13" stroke-width="1.4"/><path d="M547.2,150.0 L550.6,159.7 L549.9,169.6 L545.2,178.7 L537.6,186.7 L528.5,193.4 L518.9,199.2 L509.1,204.3 L499.1,208.7 L488.5,212.2 L477.3,214.1 L466.0,214.3 L455.0,212.9 L444.6,210.7 L434.6,208.6 L424.2,207.2 L412.8,206.2 L400.2,204.9 L387.3,202.1 L375.4,197.0 L366.6,189.2 L362.1,179.6 L362.1,169.2 L365.4,159.1 L370.4,150.0 L375.3,141.9 L379.1,134.4 L381.8,126.7 L384.5,118.7 L388.3,110.6 L393.9,103.0 L401.5,96.4 L410.7,91.0 L420.8,86.5 L431.6,82.8 L442.9,79.4 L455.0,76.9 L467.7,75.9 L480.3,77.3 L491.9,81.5 L501.2,88.4 L507.9,97.0 L512.3,105.9 L515.7,114.2 L519.7,121.2 L525.5,127.6 L532.8,134.0 L540.7,141.3 L547.2,150.0Z" fill="none" stroke="#352F25" stroke-opacity="0.13" stroke-width="1.4"/><g stroke="#588749" stroke-width="2" stroke-linecap="round">
<line x1="470" y1="305" x2="486" y2="321"/><line x1="486" y1="305" x2="470" y2="321"/></g>
<g stroke="#352F25" stroke-opacity="0.3" stroke-width="1.4" stroke-linecap="round">
<line x1="300" y1="402" x2="318" y2="402"/><line x1="309" y1="393" x2="309" y2="411"/>
<line x1="540" y1="360" x2="556" y2="360"/><line x1="548" y1="352" x2="548" y2="368"/></g></svg>