<svg xmlns="http://www.w3.org/2000/svg" viewBox="0 0 620 460" preserveAspectRatio="xMidYMid slice"><line x1="0" y1="0" x2="0" y2="460" stroke="#352F25" stroke-opacity="0.05" stroke-width="1"/><line x1="26" y1="0" x2="26" y2="460" stroke="#352F25" stroke-opacity="0.05" stroke-width="1"/><line x1="52" y1="0" x2="52" y2="460" stroke="#352F25" stroke-opacity="0.05" stroke-width="1"/><line x1="78" y1="0" x2="78" y2="460" stroke="#352F25" stroke-opacity="0.05" stroke-width="1"/><line x1="104" y1="0" x2="104" y2="460" stroke="#352F25" stroke-opacity="0.05" stroke-width="1"/><line x1="130" y1="0" x2="130" y2="460" stroke="#352F25" stroke-opacity="0.05" stroke-width="1"/><line x1="156" y1="0" x2="156" y2="460" stroke="#352F25" stroke-opacity="0.05" stroke-width="1"/><line x1="182" y1="0" x2="182" y2="460" stroke="#352F25" stroke-opacity="0.05" stroke-width="1"/><line x1="208" y1="0" x2="208" y2="460" stroke="#352F25" stroke-opacity="0.05" stroke-width="1"/><line x1="234" y1="0" x2="234" y2="460" stroke="#352F25" stroke-opacity="0.05" stroke-width="1"/><line x1="260" y1="0" x2="260" y2="460" stroke="#352F25" stroke-opacity="0.05" stroke-width="1"/><line x1="286" y1="0" x2="286" y2="460" stroke="#352F25" stroke-opacity="0.05" stroke-width="1"/><line x1="312" y1="0" x2="312" y2="460" stroke="#352F25" stroke-opacity="0.05" stroke-width="1"/><line x1="338" y1="0" x2="338" y2="460" stroke="#352F25" stroke-opacity="0.05" stroke-width="1"/><line x1="364" y1="0" x2="364" y2="460" stroke="#352F25" stroke-opacity="0.05" stroke-width="1"/><line x1="390" y1="0" x2="390" y2="460" stroke="#352F25" stroke-opacity="0.05" stroke-width="1"/><line x1="416" y1="0" x2="416" y2="460" stroke="#352F25" stroke-opacity="0.05" stroke-width="1"/><line x1="442" y1="0" x2="442" y2="460" stroke="#352F25" stroke-opacity="0.05" stroke-width="1"/><line x1="468" y1="0" x2="468" y2="460" stroke="#352F25" stroke-opacity="0.05" stroke-width="1"/><line x1="494" y1="0" x2="494" y2="460" stroke="#352F25" stroke-opacity="0.05" stroke-width="1"/><line x1="520" y1="0" x2="520" y2="460" stroke="#352F25" stroke-opacity="0.05" stroke-width="1"/><line x1="546" y1="0" x2="546" y2="460" stroke="#352F25" stroke-opacity="0.05" stroke-width="1"/><line x1="572" y1="0" x2="572" y2="460" stroke="#352F25" stroke-opacity="0.05" stroke-width="1"/><line x1="598" y1="0" x2="598" y2="460" stroke="#352F25" stroke-opacity="0.05" stroke-width="1"/><line x1="0" y1="0" x2="620" y2="0" stroke="#352F25" stroke-opacity="0.05" stroke-width="1"/><line x1="0" y1="26" x2="620" y2="26" stroke="#352F25" stroke-opacity="0.05" stroke-width="1"/><line x1="0" y1="52" x2="620" y2="52" stroke="#352F25" stroke-opacity="0.05" stroke-width="1"/><line x1="0" y1="78" x2="620" y2="78" stroke="#352F25" stroke-opacity="0.05" stroke-width="1"/><line x1="0" y1="104" x2="620" y2="104" stroke="#352F25" stroke-opacity="0.05" stroke-width="1"/><line x1="0" y1="130" x2="620" y2="130" stroke="#352F25" stroke-opacity="0.05" stroke-width="1"/><line x1="0" y1="156" x2="620" y2="156" stroke="#352F25" stroke-opacity="0.05" stroke-width="1"/><line x1="0" y1="182" x2="620" y2="182" stroke="#352F25" stroke-opacity="0.05" stroke-width="1"/><line x1="0" y1="208" x2="620" y2="208" stroke="#352F25" stroke-opacity="0.05" stroke-width="1"/><line x1="0" y1="234" x2="620" y2="234" stroke="#352F25" stroke-opacity="0.05" stroke-width="1"/><line x1="0" y1="260" x2="620" y2="260" stroke="#352F25" stroke-opacity="0.05" stroke-width="1"/><line x1="0" y1="286" x2="620" y2="286" stroke="#352F25" stroke-opacity="0.05" stroke-width="1"/><line x1="0" y1="312" x2="620" y2="312" stroke="#352F25" stroke-opacity="0.05" stroke-width="1"/><line x1="0" y1="338" x2="620" y2="338" stroke="#352F25" stroke-opacity="0.05" stroke-width="1"/><line x1="0" y1="364" x2="620" y2="364" stroke="#352F25" stroke-opacity="0.05" stroke-width="1"/><line x1="0" y1="390" x2="620" y2="390" stroke="#352F25" stroke-opacity="0.05" stroke-width="1"/><line x1="0" y1="416" x2="620" y2="416" stroke="#352F25" stroke-opacity="0.05" stroke-width="1"/><line x1="0" y1="442" x2="620" y2="442" stroke="#352F25" stroke-opacity="0.05" stroke-width="1"/><g stroke="#352F25" stroke-opacity="0.22" stroke-width="1.2" fill="none">
<circle cx="495" cy="210" r="60" stroke-dasharray="5 5"/>
<circle cx="495" cy="210" r="3" fill="#352F25" fill-opacity="0.3" stroke="none"/>
<line x1="300" y1="210" x2="600" y2="210" stroke-dasharray="6 6"/>
<line x1="495" y1="70" x2="495" y2="360" stroke-dasharray="6 6"/>
</g>
<g stroke="#352F25" stroke-opacity="0.32" stroke-width="1.3" fill="none">
<path d="M330,150 L420,150 L420,300 L560,300"/>
<path d="M330,330 L390,330 L390,210"/>
</g><rect x="325" y="145" width="10" height="10" fill="none" stroke="#352F25" stroke-opacity="0.4" stroke-width="1.3"/><rect x="415" y="145" width="10" height="10" fill="none" stroke="#352F25" stroke-opacity="0.4" stroke-width="1.3"/><rect x="415" y="295" width="10" height="10" fill="none" stroke="#352F25" stroke-opacity="0.4" stroke-width="1.3"/><rect x="555" y="295" width="10" height="10" fill="none" stroke="#352F25" stroke-opacity="0.4" stroke-width="1.3"/><rect x="325" y="325" width="10" height="10" fill="none" stroke="#352F25" stroke-opacity="0.4" stroke-width="1.3"/><rect x="385" y="325" width="10" height="10" fill="none" stroke="#352F25" stroke-opacity="0.4" stroke-width="1.3"/><rect x="385" y="205" width="10" height="10" fill="none" stroke="#352F25" stroke-opacity="0.4" stroke-width="1.3"/><rect x="490" y="205" width="10" height="10" fill="none" stroke="#352F25" stroke-opacity="0.4" stroke-width="1.3"/><rect x="555" y="295" width="10" height="10" fill="#588749" fill-opacity="0.55" stroke="none"/></svg>